<mxfile host="app.diagrams.net" modified="2024-04-18T06:44:26.985Z" agent="Mozilla/5.0 (Windows NT 10.0; Win64; x64; rv:125.0) Gecko/20100101 Firefox/125.0" etag="BmiJoqvhd7SiGWgMCuXS" version="24.2.5" type="github">
  <diagram name="Page-1" id="2EYWkwAyQjeTGoILOs5o">
    <mxGraphModel dx="1998" dy="846" grid="1" gridSize="10" guides="1" tooltips="1" connect="1" arrows="1" fold="1" page="1" pageScale="1" pageWidth="850" pageHeight="1100" math="0" shadow="0">
      <root>
        <mxCell id="0" />
        <mxCell id="1" parent="0" />
      </root>
    </mxGraphModel>
  </diagram>
</mxfile>
